<?xml version="1.0" encoding="utf-8"?>
<!-- Generator: Adobe Illustrator 16.1.0, SVG Export Plug-In . SVG Version: 6.00 Build 0)  -->
<!DOCTYPE svg PUBLIC "-//W3C//DTD SVG 1.1//EN" "http://www.w3.org/Graphics/SVG/1.1/DTD/svg11.dtd">
<svg version="1.1" id="Layer_1" xmlns="http://www.w3.org/2000/svg" xmlns:xlink="http://www.w3.org/1999/xlink" x="0px" y="0px"
	 width="512px" height="512px" viewBox="0 0 512 512" enable-background="new 0 0 512 512" xml:space="preserve">
<g id="Grid_1_">
	<g id="Layer_1_1_">
		<g id="Grid">
			<g>
				<rect fill="none" stroke="#A9CCDB" stroke-miterlimit="10" width="512" height="512"/>
				<line fill="none" stroke="#A9CCDB" stroke-miterlimit="10" x1="0" y1="480" x2="512" y2="480"/>
				<line fill="none" stroke="#A9CCDB" stroke-miterlimit="10" x1="0" y1="448" x2="512" y2="448"/>
				<line fill="none" stroke="#A9CCDB" stroke-miterlimit="10" x1="0" y1="416" x2="512" y2="416"/>
				<line fill="none" stroke="#A9CCDB" stroke-miterlimit="10" x1="0" y1="384" x2="512" y2="384"/>
				<line fill="none" stroke="#A9CCDB" stroke-miterlimit="10" x1="0" y1="352" x2="512" y2="352"/>
				<line fill="none" stroke="#A9CCDB" stroke-miterlimit="10" x1="0" y1="320" x2="512" y2="320"/>
				<line fill="none" stroke="#A9CCDB" stroke-miterlimit="10" x1="0" y1="288" x2="512" y2="288"/>
				<line fill="none" stroke="#A9CCDB" stroke-miterlimit="10" x1="0" y1="256" x2="512" y2="256"/>
				<line fill="none" stroke="#A9CCDB" stroke-miterlimit="10" x1="0" y1="224" x2="512" y2="224"/>
				<line fill="none" stroke="#A9CCDB" stroke-miterlimit="10" x1="0" y1="192" x2="512" y2="192"/>
				<line fill="none" stroke="#A9CCDB" stroke-miterlimit="10" x1="0" y1="160" x2="512" y2="160"/>
				<line fill="none" stroke="#A9CCDB" stroke-miterlimit="10" x1="0" y1="128" x2="512" y2="128"/>
				<line fill="none" stroke="#A9CCDB" stroke-miterlimit="10" x1="0" y1="96" x2="512" y2="96"/>
				<line fill="none" stroke="#A9CCDB" stroke-miterlimit="10" x1="0" y1="64" x2="512" y2="64"/>
				<line fill="none" stroke="#A9CCDB" stroke-miterlimit="10" x1="0" y1="32" x2="512" y2="32"/>
				<line fill="none" stroke="#A9CCDB" stroke-miterlimit="10" x1="480" y1="0" x2="480" y2="512"/>
				<line fill="none" stroke="#A9CCDB" stroke-miterlimit="10" x1="448" y1="0" x2="448" y2="512"/>
				<line fill="none" stroke="#A9CCDB" stroke-miterlimit="10" x1="416" y1="0" x2="416" y2="512"/>
				<line fill="none" stroke="#A9CCDB" stroke-miterlimit="10" x1="384" y1="0" x2="384" y2="512"/>
				<line fill="none" stroke="#A9CCDB" stroke-miterlimit="10" x1="352" y1="0" x2="352" y2="512"/>
				<line fill="none" stroke="#A9CCDB" stroke-miterlimit="10" x1="320" y1="0" x2="320" y2="512"/>
				<line fill="none" stroke="#A9CCDB" stroke-miterlimit="10" x1="288" y1="0" x2="288" y2="512"/>
				<line fill="none" stroke="#A9CCDB" stroke-miterlimit="10" x1="256" y1="0" x2="256" y2="512"/>
				<line fill="none" stroke="#A9CCDB" stroke-miterlimit="10" x1="224" y1="0" x2="224" y2="512"/>
				<line fill="none" stroke="#A9CCDB" stroke-miterlimit="10" x1="192" y1="0" x2="192" y2="512"/>
				<line fill="none" stroke="#A9CCDB" stroke-miterlimit="10" x1="160" y1="0" x2="160" y2="512"/>
				<line fill="none" stroke="#A9CCDB" stroke-miterlimit="10" x1="128" y1="0" x2="128" y2="512"/>
				<line fill="none" stroke="#A9CCDB" stroke-miterlimit="10" x1="96" y1="0" x2="96" y2="512"/>
				<line fill="none" stroke="#A9CCDB" stroke-miterlimit="10" x1="64" y1="0" x2="64" y2="512"/>
				<line fill="none" stroke="#A9CCDB" stroke-miterlimit="10" x1="32" y1="0" x2="32" y2="512"/>
			</g>
		</g>
	</g>
</g>
<g>
	<g>
		<path d="M266.157,295.312l37.154-37.204l-49.437-49.452l-37.188,37.188c-5.906-3.111-12.063-5.626-18.498-7.671v-52.579h-69.972
			v52.579c-6.436,2.045-12.592,4.576-18.531,7.671l-37.188-37.172l-49.437,49.469l37.187,37.172
			c-3.123,5.906-5.625,12.063-7.687,18.499H0v69.971h52.563c2.061,6.436,4.563,12.592,7.687,18.499l-37.187,37.188l49.469,49.469
			l37.155-37.188c5.939,3.095,12.064,5.594,18.531,7.655V512h69.972v-52.563c6.435-2.061,12.592-4.592,18.498-7.687l37.188,37.188
			l49.469-49.469l-37.187-37.155c3.094-5.939,5.625-12.063,7.654-18.531h52.595v-69.971h-52.595
			C271.782,307.376,269.251,301.219,266.157,295.312z M163.188,418.749c-38.625,0-69.937-31.312-69.937-69.937
			c0-38.655,31.312-69.952,69.937-69.952c38.656,0,69.939,31.297,69.939,69.952C233.127,387.437,201.844,418.749,163.188,418.749z
			 M512,138.563V89.658h-36.781c-1.407-4.519-3.187-8.813-5.344-12.938l25.937-26.016l-34.561-34.579l-26,26
			c-4.096-2.173-8.438-3.936-12.938-5.36V0h-48.877v36.765c-4.499,1.424-8.842,3.203-12.97,5.36l-26-25.984l-34.592,34.58l26,26
			c-2.156,4.125-3.939,8.419-5.344,12.938H283.75v48.905h36.781c1.404,4.516,3.188,8.813,5.344,12.938l-26,26l34.624,34.592
			l25.968-26c4.128,2.157,8.438,3.907,12.97,5.36v36.765h48.877v-36.749c4.499-1.437,8.842-3.219,12.938-5.376l26,26l34.624-34.592
			l-26-25.968c2.157-4.157,3.937-8.438,5.344-12.97H512z M397.875,163.015c-27.001,0-48.905-21.888-48.905-48.89
			c0-27.031,21.904-48.922,48.905-48.922c27.03,0,48.906,21.891,48.906,48.922C446.781,141.126,424.905,163.015,397.875,163.015z"/>
	</g>
</g>
</svg>
