<?xml version="1.0" encoding="utf-8"?>
<!-- Generator: Adobe Illustrator 16.2.1, SVG Export Plug-In . SVG Version: 6.00 Build 0)  -->
<!DOCTYPE svg PUBLIC "-//W3C//DTD SVG 1.1//EN" "http://www.w3.org/Graphics/SVG/1.1/DTD/svg11.dtd">
<svg version="1.1" id="Layer_1" xmlns="http://www.w3.org/2000/svg" xmlns:xlink="http://www.w3.org/1999/xlink" x="0px" y="0px"
	 width="512px" height="512px" viewBox="0 0 512 512" enable-background="new 0 0 512 512" xml:space="preserve">
<g id="Grid_1_">
	<g id="Layer_1_1_">
		<g id="Grid">
			<g>
				<rect fill="none" stroke="#A9CCDB" stroke-miterlimit="10" width="512" height="512"/>
				<line fill="none" stroke="#A9CCDB" stroke-miterlimit="10" x1="0" y1="480" x2="512" y2="480"/>
				<line fill="none" stroke="#A9CCDB" stroke-miterlimit="10" x1="0" y1="448" x2="512" y2="448"/>
				<line fill="none" stroke="#A9CCDB" stroke-miterlimit="10" x1="0" y1="416" x2="512" y2="416"/>
				<line fill="none" stroke="#A9CCDB" stroke-miterlimit="10" x1="0" y1="384" x2="512" y2="384"/>
				<line fill="none" stroke="#A9CCDB" stroke-miterlimit="10" x1="0" y1="352" x2="512" y2="352"/>
				<line fill="none" stroke="#A9CCDB" stroke-miterlimit="10" x1="0" y1="320" x2="512" y2="320"/>
				<line fill="none" stroke="#A9CCDB" stroke-miterlimit="10" x1="0" y1="288" x2="512" y2="288"/>
				<line fill="none" stroke="#A9CCDB" stroke-miterlimit="10" x1="0" y1="256" x2="512" y2="256"/>
				<line fill="none" stroke="#A9CCDB" stroke-miterlimit="10" x1="0" y1="224" x2="512" y2="224"/>
				<line fill="none" stroke="#A9CCDB" stroke-miterlimit="10" x1="0" y1="192" x2="512" y2="192"/>
				<line fill="none" stroke="#A9CCDB" stroke-miterlimit="10" x1="0" y1="160" x2="512" y2="160"/>
				<line fill="none" stroke="#A9CCDB" stroke-miterlimit="10" x1="0" y1="128" x2="512" y2="128"/>
				<line fill="none" stroke="#A9CCDB" stroke-miterlimit="10" x1="0" y1="96" x2="512" y2="96"/>
				<line fill="none" stroke="#A9CCDB" stroke-miterlimit="10" x1="0" y1="64" x2="512" y2="64"/>
				<line fill="none" stroke="#A9CCDB" stroke-miterlimit="10" x1="0" y1="32" x2="512" y2="32"/>
				<line fill="none" stroke="#A9CCDB" stroke-miterlimit="10" x1="480" y1="0" x2="480" y2="512"/>
				<line fill="none" stroke="#A9CCDB" stroke-miterlimit="10" x1="448" y1="0" x2="448" y2="512"/>
				<line fill="none" stroke="#A9CCDB" stroke-miterlimit="10" x1="416" y1="0" x2="416" y2="512"/>
				<line fill="none" stroke="#A9CCDB" stroke-miterlimit="10" x1="384" y1="0" x2="384" y2="512"/>
				<line fill="none" stroke="#A9CCDB" stroke-miterlimit="10" x1="352" y1="0" x2="352" y2="512"/>
				<line fill="none" stroke="#A9CCDB" stroke-miterlimit="10" x1="320" y1="0" x2="320" y2="512"/>
				<line fill="none" stroke="#A9CCDB" stroke-miterlimit="10" x1="288" y1="0" x2="288" y2="512"/>
				<line fill="none" stroke="#A9CCDB" stroke-miterlimit="10" x1="256" y1="0" x2="256" y2="512"/>
				<line fill="none" stroke="#A9CCDB" stroke-miterlimit="10" x1="224" y1="0" x2="224" y2="512"/>
				<line fill="none" stroke="#A9CCDB" stroke-miterlimit="10" x1="192" y1="0" x2="192" y2="512"/>
				<line fill="none" stroke="#A9CCDB" stroke-miterlimit="10" x1="160" y1="0" x2="160" y2="512"/>
				<line fill="none" stroke="#A9CCDB" stroke-miterlimit="10" x1="128" y1="0" x2="128" y2="512"/>
				<line fill="none" stroke="#A9CCDB" stroke-miterlimit="10" x1="96" y1="0" x2="96" y2="512"/>
				<line fill="none" stroke="#A9CCDB" stroke-miterlimit="10" x1="64" y1="0" x2="64" y2="512"/>
				<line fill="none" stroke="#A9CCDB" stroke-miterlimit="10" x1="32" y1="0" x2="32" y2="512"/>
			</g>
		</g>
	</g>
</g>
<path d="M256,0C128.312,0,17.139,98.169,1.851,225.056c-15.308,127.051,68.868,249.36,193.362,279.682
	c124.589,30.346,256.016-39.239,300.77-159.415C540.802,224.973,486.561,86.274,372.336,27.9C336.426,9.548,296.318,0,256,0z
	 M478.874,233.782C479.082,235.229,478.365,234.021,478.874,233.782C478.905,234,478.812,233.811,478.874,233.782z M79.344,118.781
	c-0.964,3.05,0.846,0.203,0.846,2.333c-1.498,1.213-3.047,2.287-5.002,3.232C76.573,122.491,77.959,120.636,79.344,118.781z
	 M470.157,321.501c-9.348,30.344-27.025,60.352-46.532,82.563c-4.794-6.925-0.496-7.628-13.533-5.784
	c1.688-2.812-2.635,1.943,0.563-4.374c-1.89-0.208-3.42,0.459-4.592,2c0.803-0.07,1.975,0.851,3.216,0.688
	c-1.073,0.318-2.084,0.776-3.03,1.373c0.683-0.258,0.766,1.276,0.655,1.438c2.016-2.457,7.419,2.471,2.97,7.218
	c2.806-1.197,7.797-1.679,11.062-2.185c-2.945,5.881-4.812,15.422-6.873,5.779c-6.487,4.464-15.137,16.715-8.098,2.564
	c-2.26,1.347-5.267,0.129-5.717-0.251c-3.196,1.361-31.066,13.525-33.813,18.312c-2.599,0-4.17,9.32-4.438,5.498
	c1.062,0-3.781,10.817-4.938,11.75c2.53,3.02,17.061-3.404,20.624-4.311c-94.771,61.61-223.624,40.895-295.085-46.207
	c-34.754-42.36-52.534-96.741-50.001-151.443c1.539-33.234,16.312-118.447,54.589-125.989c-0.551,0.58-0.394,0.866,0.471,0.86
	c-4.006,2.914,4.573-2.881-5.316,3.187c0.53,0.104,0.687,0.39,0.47,0.857c3.935-2.026,1.058,2.164,4.499-2.282
	c-0.161,0.958,0.173,1.358,1.002,1.203c-1.471,1.313-0.917,12.765-0.752,14.922c1.436-1.779-1.061,3.444,2.064-0.733
	c-1.185,2.368-3.351,11.488-3.126,10.624c-0.269,0.536-2.55,3.463-0.032,1.923c-1.345,1.763-2.039,2.807-3.155,4.857
	c1.167-0.771,1.515-1.01,0.406,1.018c0.174,1.029-1.249,13.741-2.717,16.17c0.661-1.352,0.368-2.612-0.877-3.779
	c-5.205,10.192-11.021,20.545-11.979,29.02c-0.766,6.764-5.433,32.042-1.956,36.385c2.05-6.483-0.693-16.567,3.031-22.407
	c-0.025,1.204,0.402,1.632,1.28,1.283c-1.836,7.986-4.383,26.428-1.729,34.396c2.49,7.478,8.454,12.562,10.297,19.503
	c1.749,6.587,4.304,21.067,9.311,24.507c0.07-0.122,2.1-2.767,2-2.438c2.048,9.337-4.42,16.269-5.469,22.157
	c-0.112-0.112-2.748,15.308,1.312,17.343c-0.718,8.438,6.247,12.354,7.444,19.754c0.933,5.771-1.911,10.922-1.911,16.558
	c2.57,6.535-2.496,14.433-0.136,21.274c0.997,2.891,2.111,7.186-1.365,4.914c0.714,3.936,4.708,14.333,6.5,15.097
	c-1.19-2.006,0.131,0.512-0.781-1.658c1.75,2.685,1.18-0.787,3.782,1.156c-1.151-1.915-2.23-4.598,0.158-2.968
	c0.112,0.354-1.03-5.174-1.034-6.704c-0.001-0.794,3.16-2.562,3.658-2.328c0-0.467-2.763-3.646-2.467-3.313
	c0.525,0.269,0.711,0.04,0.56-0.687c0.466,1.234,1.237,1.922,2.313,2.063c-0.254-2.992,1.526,8.87,0.064-3.718
	c11.011,4.266,2.26-0.4,4.625-6.812c0,11.471,12.023,0.249,12.219,0.439c0.724-7.891,4.028-6.068,9.44-5.397
	c3.133,0.388,8.88-14.874,11.906-16.656c10.912-6.427-7.851-19.896-8.252-19.007c-0.327-0.202-7.734-10.076-8.313-7.158
	c2.595,0.565,3.137-0.185,1.626-2.25c-1.658-1.097-2.397-0.347-2.218,2.25c-0.35-2.2-0.923-2.294-1.719-0.281
	c-0.662-2.27,0.129-3.718,2.374-4.344c-0.529,0.71-0.341,1.22,0.563,1.529c0.862-6.313-2.84-14.273-8.752-19.81
	c-0.88,2.148-0.14,1.038-1.062,0.78c0.849-4.014,0.193-4.977-3.937-6.435c4.569-2.293,0.191-0.679,1.687-4.407
	c-5.062-1.055-8.292-4.118-9.687-9.189c0.232,0.215-3.147,4.528-3.437,4.406c0.028,0.062,0.804-6.146,1.721-5.245
	c-2.76-2.708-7.933,1.373-8.598,3.747c-11.126-5.576,0.382-21.462-10.438-26.516c1.242-1.093,7.32-9.887,5.44-11.158
	c-1.424-1.843-6.57,2.469-8.18,2.158c-6.191-1.194-1.911-13.193-0.752-16.619c4.974-14.701,8.565-4.077,12.994-1.867
	c3.854-12.198,6.516,15.135,6.938,15.389c1.759-5.344,1.121-12.067,6.478-14.865c2.8-1.461,5.366-1.081,6.022-3.62
	c0.153,1.21,0.633,1.523,1.44,0.938c-0.747-0.286,1.082-11.301,4.187-8.97c-0.451,1.282-4.661,3.441-1.123,4.579
	c1.45-3.715,6.503-7.074,10.25-4.672c-1.838-3.496,10.414-4.971,10.749-5.345c1.805,2.342-3.414,1.431,1.5,2.782
	c-0.959,1.385-7.747-2.008-4.844,3.093c0.841-0.539,1.007-0.451,0.498,0.266c1.792-0.853,6.533-0.712,7.063-3.234
	c-1.413,0.482-2.475,0.091-3.187-1.172c2.217-2.219-0.781-5.563-0.153-7.295c1.715,0.599,1.962,1.182,3.249-1.017
	c-0.974-1.984-5.604-3.156-9.563,0.095c5.549-10.022,20.22,5.966,25.501-4.266c0.824-0.476-5.894-2.517-5.875-3.017
	c1.679,0.244,3.367,0.349,5.062,0.314c0.776-2.541-5.768-6.493-3.376-9.501c0.528,0.178,0.987,0.46,1.376,0.845
	c1.941-3.211-1.053-7.73,1.654-11.875c-0.281-0.196-5.784,3.008-6.407,3.264c0-6.005,3.009-11.419-4.438-16.423
	c-4.4-3.526-9.011,12.317-9.158,13.734c-0.123,0.433-11.542,8.37-10.471,9.148c1.366,0.993-4.055-26.497-4.079-26.378
	c2.731-13.684,12.231-5.177,16.521-11.609c-1.266-0.801-2.277-1.843-3.034-3.126c0.731,1.079,1.294,0.976,1.691-0.31
	c0.599,5.029,2.697,0.895,5.874,3.606c-0.749,0.749,14.227-4.582,6.027-11.231c-1.203,3.276-3.474,5.473-6.813,6.592
	c-2.741-1.954,2.082-6.225,2.877-7.514c-1.353,0.847-2.79,1.503-4.312,1.968c3.487-4.264,1.094-5.084,4.188-6.985
	c-8.274-4.169,6.802-7.669,7.531-8.044c-8.668-6.185-6.587,2.022-14.218,6.826c1.566-0.453,1.431-0.033,2.781,1.847
	c-0.812,0.953-4.606,0.617-2.315,2.249c0.174-0.228-6.734,3.251-5.78,3.219c2.874-6.902,0.908-2.039,1.688-4.47
	c-1.27,0.447-1.508-0.184-0.717-1.892c-5.05,6.746-6.909-11.196-9.785-6.606c0.088-0.126,2.769-0.174,3.28,0.858
	c0.469-0.453-7.083,3.66-5.812,2.909c0.956-5.383-2.331-3.478-2.72-6.784c0.707-1.301,3.901-1.783,1.626-4.31
	c0.404-1.756-3.958-6.505-2.189-9.018c-4.663,6.236-0.823-4.523-0.623-5.232c-1.161,1.249-2.556,1.701-4.186,1.357
	c1.34-0.129,1.756-0.8,1.248-2.013c-2.825,1.788-2.633,0.297-3.28-1.22c-2.132,2.214-0.668-0.291-3.062,2.234
	c-5.295-5.427-1.469-19.12-6.097-22.595C229.29-27.186,446.813,44.929,476.532,218.132c-8.115-0.832-3.098,1.397-7.845,5.329
	c-1.479-5.568-8.468-1.761-7.781,1.735c-1.591-9.854-8.42-2.281-14.032-2.281c-0.688-3.269-0.479-4.185,0.627-2.75
	c2.227-6.242-6.08,1.743-4.938,1.578c-0.035-1.026,0.256-1.948,0.873-2.765c-0.129,1.446-0.004,1.315,0.375-0.391
	c-2.675,0.38-3.658,0.019-1.345-0.407c-1.905-0.817-3.895-1.146-5.968-0.985c3.308,2.868-6.579,8.827-8.032,3.999
	c-0.553,1.851-0.938,3.736-1.155,5.657c-0.772,0-3.436-3.235-3.436-4.221c-0.102,1.563-0.82,1.094-2.156-1.405
	c0.105,0.776,0.043,1.537-0.186,2.282c-1.386-0.741-1.876-1.778-1.469-3.11c-1.146,1.304-16.288-6.147-15.5-1.14
	c-0.635-2.247-1.524-2.579-3.908-2.812c0.664-1.025-5.463,9.252-6.846,5.156c4.99,0,12.896-9.356,9.089-13.877
	c-0.832-0.987-12.162-4.048-13.341-2.181c-1.824,2.887-12.659,6.464-18.498,6.464c-0.396,0.929,0.545,2.972,0.958,4.106
	c-2.136-5.873-13.099,7.068-4.802,13.271c-1.502-0.044-2.285-0.779-3.562-0.954c7.044-8.264-4.354-7.147-6.188-7.391
	c0,1.881,2.114,2.771,1.533,3.718c-1.359-0.736-5.326-7.204-4.064-7.204c-0.965,9.31-0.721,13.558,5.845,19.034
	c-0.623,0.309-2.407-1.692-2.407,0.093c-1.493-0.758,0.003-6.583-2.297-6.576c-2.741,0.008-5.43,9.394-5.482,9.953
	c-0.554-0.044-4.324-2.952-4.252-3.469c9.708,0.083,6.076-23.67,1.329-18.5c-2.589,2.82-5.435,11.591-1.89,11.591
	c-0.111,1.103-0.652,1.896-1.625,2.378c0.8-7.619-8.149-6.274-11.032-1.955c-1.919-0.226-4.964-2.085-9.343-1.577
	c1.543-0.155,1.771-0.988,0.685-2.5c-3.606-0.831-9.627,6.287-12.06,5.563c0-5.289,3.481-2.602-1.501-8.219
	c4.327,7.104-6.591,6.642-6.591,11.796c-2.199-0.303-3.564-1.495-4.097-3.578c0.157,1.664-0.009,3.29-0.499,4.877
	c0.318-1.101-6.061-10.486-6.061-12.389c0.739,0.215,17.612,11.469,10.906,0.56c1.023-3.036-10.15-10.076-12.533-8.922
	c0-1.236,1.331-1.713,2.593-1.328c-2.541-2.633-0.958-0.764-3.248-1.468c0.814-1.296,0.772-1.531-0.125-0.705
	c-0.142-1.027,0.398-0.761,0.717-1.796c-1.442,0.329-2.566,1.136-3.372,2.422c0.77-4.437-1.287-0.745-2.253,1.095
	c-0.111-4.414,3.06-1.539-0.062-4.032c-0.631,2.391-2.588,1.294-5.436,0.531c-0.132,0.741,0.107,0.908,0.717,0.499
	c-0.077-1.197-9.76,4.494-7.467,5.267c-0.483,0.579-2.908,1.023-2.938,1.154c0.376-0.021-8.338,8.565-11.531,7.984
	c-0.325,1.56,0.436,1.68,2.281,0.359c-1.451,3.873-4.139-2.597-5.033,1.83c-1.793-2.456-3.066,1.927-6.093,1.09
	c0.217,0.582,0.582,1.046,1.094,1.393c-3.906-1.3-1.471,0.624,0.938,1.67c-1.219,0.469-2.375,0.324-3.469-0.435
	c0.92,0.755,0.792,1.177-0.383,1.267c-0.335,0.841,1.378,1.12,2.227,1.358c-1.313,2.692-4.666,1.551-1.867,6.064
	c1.381,2.228,6.058-0.838,7.681-0.456c-1.026,3.691,0.288,6.564-0.938,10.28c2.035,0.851,5.196-2.85,6.31-0.482
	c0.912-1.069,7.789-17.995,8.376-18.065c2.022-0.344,10.618-11.561,11.269-4.997c0.041,0.408-11.573,12.154-7.206,13.389
	c-1.201,3.016,12.733-0.428,11.25,4.952c-3.539-0.927-6.999,0.183-10.688-0.422c-1.182,3.521-4.123,5.479-2.812,3.625
	c-3.553,0.71-5.611,6.56-7.252,8.467c0.06-1.032-0.524-1.203-1.75-0.515c0.851-2.565-11.738-0.11-12.335-4.28
	c-0.322-2.25,2.921-7.267,3.711-9.172c-1.743,0.19-3.284,0.841-4.624,1.951c9.521,3.192-21.227,16.187-21.128,15.659
	c-0.902-0.365-5.593-0.657-5.563-0.592c-0.403,1.023,8.238,9.749,1.876,12.764c-6.164,3.034-7.764-5.312-13.501-0.363
	c-0.262-0.054-3.382,10.208-3.562,10.77c14.708,6.479,11.992-3.725,23.662-6.779c8.798-2.303,20.309,9.792,15.212,18.809
	c4.886,1.511,0.271-5.762,5.345-3.844c1.481-5.441-8.148-8.958-5.376-15.906c7.601,1.564,7.661,17.679,9.783,24.562
	c0.323-1.031,5.044-1.511,5.5-0.841c-0.566-6.237-2.759-1.342-1.252-7.409c0.197,2.633,0.619,1.375,1.438,1.751
	c-0.095-0.812-0.531-0.18-0.062-2.093c7.305,1.793,4.901,4.5,8.095-2.563c1.291-2.831,7.837-5.941,8.375-7.658
	c1.004,1.268-1.132,1.337,2.845,2.363c-0.337,2.103-6.226,6.68,4.033,2.969c-1.989,0.286-12.371-3.75,5.593-3.75
	c0,0.191-5.366,3.62-5.75,4.375c1.511,0,3.41,3.72,4.658,5.391c6.427,8.607-11.817,0.666-13.845,0.81
	c-3.186,0.268-13.019,1.47-11.002,4.91c-1.822,8.625,9.45,5.981,13.908,7.468c-3.233,13.892-12.587,13.979-22.718,5.104
	c-1.964-1.721-16.061,4.539-13.938-3.762c-9.137-2.662-4.195-7.728-2.687-12.311c-7.648-2.446-30.797-10.528-36.16-1.299
	c-3.734,6.426-9.649,11.266-16.161,15.874c-7.095,5.022-3.618,18.696-6.179,23.829c4.571,16.008,10.073,18.119,23.2,20.137
	c3.076,0.474,10.371,5.283,10.301,6.02c7.548,2.295-3.038,11.497-0.124,12.717c0,6.136,4.35,12.318,2.185,20.281
	c-5.65-1.636-5.233,12.347-4.142,14.6c1.945,4.011,2.291,17.857,1.453,22.121c8.148,2.739,13.788,2.428,21.38-0.885
	c0.875-0.382,5.816-4.585,3.871-5.646c0.421-2.075,23.58-20.729,20.687-21.594c0.639-16.143,20.086-24.284,30.002-36.531
	c-6.849-3.211-19.647-0.421-17.193-14.932c1.457-8.61-6.019-20.185-3.307-28.381c10.686,4.394,1.813,34.963,8.355,38.296
	c6.519,3.321,18.909-3.74,24.342-6.833c11.472-6.533,2.028-8.357,3.862-16.617c-4.743,4.578-7.705,4.486-8.093-1.156
	c-2.978,0-3.623-7.412-2.812-10.656c3.552,0,9.748,12.619,14.954,14.689c7.288,2.897,13.487,5.59,18.356,7.217
	c-0.769,1.268-1.843,1.996-3.224,2.187c-2.943,7.287,6.798,0.179,5.505-0.03c-5.556,8.487,2.189,20.696-0.655,29.188
	c-1.513,0,29.024-26.981,29.409-28.125c4.395,3.965,3.091,10.068,3.091,15.409c14.233-1.787-6.507,27.437,6.378,27.437
	c0-2.357-5.117-22.757,2.187-21.938c0,3.12,4.718,5.612,2.749,9.534c1.947-0.528,6.689-4.25,9.346-7.688
	c3.86-4.954-8.986-18.562,4.937-18.562c-0.786,1.316-0.557,2.171,0.688,2.562c1.794-1.607,28.698-26.504,19.408-25.252
	c-3.55-0.166,4.814-10.728,5.749-13.187c-2.947,0.234-3.04,0.564-5.813,1.28c-1.128-2.821,1.938-11.216,6.22-8.938
	c-0.877,1.758-1.298,2.771-1.876,4.562c8.756,0,4.862-0.103,5.749,10.313c3.802-3.801,2.91-22.782,10.377-22.782
	c-0.286,0.697,0.412-0.309,0.843,1.844c3.614,0.686,19.929-26.812,6.969-26.812c1.168-3.271-0.263-0.515-0.781-0.515
	c0.888-2.484,0.263-3.267-1.875-2.347c0-9.612,13.555-21.15,19.917-18.693c1.493,0.577,0.163,1.529,0.115,2.678
	c1.797-0.441,3.037-1.488,3.719-3.14c-3.075,1.883,4.639-7.345,5.155-7.907c1.199,6.202,0.183-0.842,0.375,3.533
	c0.857-1.37,2.523-6.665,3.458-7.135c-5.729,2.884-6.174,28.459-6.174,35.105c1.885-1.742,7.007-14.2,6.749-16.999
	c-3.185,2.9,3.087-18.433,2.092-10.469c3.795-4.519-0.09-3.47,4.281-1.795c-0.396-2.373,2.799-9.068,4.877-9.469
	C484.236,265.281,477.877,296.542,470.157,321.501C462.032,347.875,474.343,307.968,470.157,321.501z"/>
</svg>
