<?xml version="1.0" encoding="utf-8"?>
<!-- Generator: Adobe Illustrator 16.1.0, SVG Export Plug-In . SVG Version: 6.00 Build 0)  -->
<!DOCTYPE svg PUBLIC "-//W3C//DTD SVG 1.1//EN" "http://www.w3.org/Graphics/SVG/1.1/DTD/svg11.dtd">
<svg version="1.1" id="Layer_1" xmlns="http://www.w3.org/2000/svg" xmlns:xlink="http://www.w3.org/1999/xlink" x="0px" y="0px"
	 width="512px" height="512px" viewBox="0 0 512 512" enable-background="new 0 0 512 512" xml:space="preserve">
<g id="Grid_1_">
	<g id="Layer_1_1_">
		<g id="Grid">
			<g>
				<rect fill="none" stroke="#A9CCDB" stroke-miterlimit="10" width="512" height="512"/>
				<line fill="none" stroke="#A9CCDB" stroke-miterlimit="10" x1="0" y1="480" x2="512" y2="480"/>
				<line fill="none" stroke="#A9CCDB" stroke-miterlimit="10" x1="0" y1="448" x2="512" y2="448"/>
				<line fill="none" stroke="#A9CCDB" stroke-miterlimit="10" x1="0" y1="416" x2="512" y2="416"/>
				<line fill="none" stroke="#A9CCDB" stroke-miterlimit="10" x1="0" y1="384" x2="512" y2="384"/>
				<line fill="none" stroke="#A9CCDB" stroke-miterlimit="10" x1="0" y1="352" x2="512" y2="352"/>
				<line fill="none" stroke="#A9CCDB" stroke-miterlimit="10" x1="0" y1="320" x2="512" y2="320"/>
				<line fill="none" stroke="#A9CCDB" stroke-miterlimit="10" x1="0" y1="288" x2="512" y2="288"/>
				<line fill="none" stroke="#A9CCDB" stroke-miterlimit="10" x1="0" y1="256" x2="512" y2="256"/>
				<line fill="none" stroke="#A9CCDB" stroke-miterlimit="10" x1="0" y1="224" x2="512" y2="224"/>
				<line fill="none" stroke="#A9CCDB" stroke-miterlimit="10" x1="0" y1="192" x2="512" y2="192"/>
				<line fill="none" stroke="#A9CCDB" stroke-miterlimit="10" x1="0" y1="160" x2="512" y2="160"/>
				<line fill="none" stroke="#A9CCDB" stroke-miterlimit="10" x1="0" y1="128" x2="512" y2="128"/>
				<line fill="none" stroke="#A9CCDB" stroke-miterlimit="10" x1="0" y1="96" x2="512" y2="96"/>
				<line fill="none" stroke="#A9CCDB" stroke-miterlimit="10" x1="0" y1="64" x2="512" y2="64"/>
				<line fill="none" stroke="#A9CCDB" stroke-miterlimit="10" x1="0" y1="32" x2="512" y2="32"/>
				<line fill="none" stroke="#A9CCDB" stroke-miterlimit="10" x1="480" y1="0" x2="480" y2="512"/>
				<line fill="none" stroke="#A9CCDB" stroke-miterlimit="10" x1="448" y1="0" x2="448" y2="512"/>
				<line fill="none" stroke="#A9CCDB" stroke-miterlimit="10" x1="416" y1="0" x2="416" y2="512"/>
				<line fill="none" stroke="#A9CCDB" stroke-miterlimit="10" x1="384" y1="0" x2="384" y2="512"/>
				<line fill="none" stroke="#A9CCDB" stroke-miterlimit="10" x1="352" y1="0" x2="352" y2="512"/>
				<line fill="none" stroke="#A9CCDB" stroke-miterlimit="10" x1="320" y1="0" x2="320" y2="512"/>
				<line fill="none" stroke="#A9CCDB" stroke-miterlimit="10" x1="288" y1="0" x2="288" y2="512"/>
				<line fill="none" stroke="#A9CCDB" stroke-miterlimit="10" x1="256" y1="0" x2="256" y2="512"/>
				<line fill="none" stroke="#A9CCDB" stroke-miterlimit="10" x1="224" y1="0" x2="224" y2="512"/>
				<line fill="none" stroke="#A9CCDB" stroke-miterlimit="10" x1="192" y1="0" x2="192" y2="512"/>
				<line fill="none" stroke="#A9CCDB" stroke-miterlimit="10" x1="160" y1="0" x2="160" y2="512"/>
				<line fill="none" stroke="#A9CCDB" stroke-miterlimit="10" x1="128" y1="0" x2="128" y2="512"/>
				<line fill="none" stroke="#A9CCDB" stroke-miterlimit="10" x1="96" y1="0" x2="96" y2="512"/>
				<line fill="none" stroke="#A9CCDB" stroke-miterlimit="10" x1="64" y1="0" x2="64" y2="512"/>
				<line fill="none" stroke="#A9CCDB" stroke-miterlimit="10" x1="32" y1="0" x2="32" y2="512"/>
			</g>
		</g>
	</g>
</g>
<g>
	<g>
		<path d="M383.442,362.401c-28.438-5.219-58.688-35.03-70.688-47.936v-32.721c21.312-26.313,36.188-65.686,37.126-102.188
			c7.312-21.405,19.248-56.717,1.188-88.938c-23.437-41.872-101.062-103.719-88.563-88c12.499,15.689-65.123,46.128-88.563,88
			c-18.061,32.221-6.125,67.533,1.188,88.938c0.938,36.503,15.814,75.875,37.127,102.188v32.721
			c-12.032,12.905-42.25,42.717-70.749,47.936c-36.471,6.752-56.189,34.032-47.626,102.093
			c4.311,33.939,86.438,48.563,168.624,47.315c82.188,1.248,164.313-13.376,168.563-47.315
			C439.632,396.434,419.941,369.153,383.442,362.401z M483.881,298.933c-16.063-2.938-33.188-19.844-40-27.155v-18.531
			c12.061-14.905,20.499-37.187,20.999-57.875c4.156-12.093,10.908-32.093,0.688-50.314c-13.248-23.718-57.248-58.749-50.125-49.843
			c4.125,5.155-9.155,13.251-23.469,23.718c2.032,26.624-5.094,50.905-10.342,66.595c-0.813,14.624-3.844,29.53-8,44.217
			c3.497,8.688,8,16.906,13.344,23.501v18.531c-6.845,7.312-23.907,24.218-40.032,27.155c-0.812,0.156-1.437,0.374-2.188,0.563
			v1.843c16.72,16.218,33.501,27.437,44.438,29.437c25.03,4.596,51.936,17.907,65.936,50.877
			c30.188-3.312,54.064-11.376,55.751-24.938C515.725,318.151,504.569,302.747,483.881,298.933z M177.631,303.589
			c-3.625-2.218-7.814-3.779-12.562-4.656c-16.093-2.938-33.219-19.844-40.064-27.155v-18.531
			c10.97-13.501,18.596-33.062,20.378-51.968c-0.752-5.283-1.751-10.531-2.032-15.75c-4.781-14.189-10.969-35.408-10.656-59.034
			c-17.689-19.623-41.437-38-36.096-31.28c7.034,8.874-36.874,26.125-50.153,49.843c-10.221,18.221-3.469,38.221,0.656,50.314
			c0.531,20.688,8.967,42.97,21.031,57.875v18.531c-6.813,7.312-23.907,24.218-40.032,27.155
			c-20.656,3.814-31.843,19.219-26.97,57.782c1.939,15.405,32.253,23.654,68.128,26.032c13.872-33.847,41.188-47.251,66.499-51.972
			C146.131,328.9,161.756,318.526,177.631,303.589z"/>
	</g>
</g>
</svg>
