<?xml version="1.0" encoding="utf-8"?>
<!-- Generator: Adobe Illustrator 16.1.0, SVG Export Plug-In . SVG Version: 6.00 Build 0)  -->
<!DOCTYPE svg PUBLIC "-//W3C//DTD SVG 1.1//EN" "http://www.w3.org/Graphics/SVG/1.1/DTD/svg11.dtd">
<svg version="1.1" id="Layer_1" xmlns="http://www.w3.org/2000/svg" xmlns:xlink="http://www.w3.org/1999/xlink" x="0px" y="0px"
	 width="512px" height="512px" viewBox="0 0 512 512" enable-background="new 0 0 512 512" xml:space="preserve">
<g id="Grid_1_">
	<g id="Layer_1_1_">
		<g id="Grid">
			<g>
				<rect fill="none" stroke="#A9CCDB" stroke-miterlimit="10" width="512" height="512"/>
				<line fill="none" stroke="#A9CCDB" stroke-miterlimit="10" x1="0" y1="480" x2="512" y2="480"/>
				<line fill="none" stroke="#A9CCDB" stroke-miterlimit="10" x1="0" y1="448" x2="512" y2="448"/>
				<line fill="none" stroke="#A9CCDB" stroke-miterlimit="10" x1="0" y1="416" x2="512" y2="416"/>
				<line fill="none" stroke="#A9CCDB" stroke-miterlimit="10" x1="0" y1="384" x2="512" y2="384"/>
				<line fill="none" stroke="#A9CCDB" stroke-miterlimit="10" x1="0" y1="352" x2="512" y2="352"/>
				<line fill="none" stroke="#A9CCDB" stroke-miterlimit="10" x1="0" y1="320" x2="512" y2="320"/>
				<line fill="none" stroke="#A9CCDB" stroke-miterlimit="10" x1="0" y1="288" x2="512" y2="288"/>
				<line fill="none" stroke="#A9CCDB" stroke-miterlimit="10" x1="0" y1="256" x2="512" y2="256"/>
				<line fill="none" stroke="#A9CCDB" stroke-miterlimit="10" x1="0" y1="224" x2="512" y2="224"/>
				<line fill="none" stroke="#A9CCDB" stroke-miterlimit="10" x1="0" y1="192" x2="512" y2="192"/>
				<line fill="none" stroke="#A9CCDB" stroke-miterlimit="10" x1="0" y1="160" x2="512" y2="160"/>
				<line fill="none" stroke="#A9CCDB" stroke-miterlimit="10" x1="0" y1="128" x2="512" y2="128"/>
				<line fill="none" stroke="#A9CCDB" stroke-miterlimit="10" x1="0" y1="96" x2="512" y2="96"/>
				<line fill="none" stroke="#A9CCDB" stroke-miterlimit="10" x1="0" y1="64" x2="512" y2="64"/>
				<line fill="none" stroke="#A9CCDB" stroke-miterlimit="10" x1="0" y1="32" x2="512" y2="32"/>
				<line fill="none" stroke="#A9CCDB" stroke-miterlimit="10" x1="480" y1="0" x2="480" y2="512"/>
				<line fill="none" stroke="#A9CCDB" stroke-miterlimit="10" x1="448" y1="0" x2="448" y2="512"/>
				<line fill="none" stroke="#A9CCDB" stroke-miterlimit="10" x1="416" y1="0" x2="416" y2="512"/>
				<line fill="none" stroke="#A9CCDB" stroke-miterlimit="10" x1="384" y1="0" x2="384" y2="512"/>
				<line fill="none" stroke="#A9CCDB" stroke-miterlimit="10" x1="352" y1="0" x2="352" y2="512"/>
				<line fill="none" stroke="#A9CCDB" stroke-miterlimit="10" x1="320" y1="0" x2="320" y2="512"/>
				<line fill="none" stroke="#A9CCDB" stroke-miterlimit="10" x1="288" y1="0" x2="288" y2="512"/>
				<line fill="none" stroke="#A9CCDB" stroke-miterlimit="10" x1="256" y1="0" x2="256" y2="512"/>
				<line fill="none" stroke="#A9CCDB" stroke-miterlimit="10" x1="224" y1="0" x2="224" y2="512"/>
				<line fill="none" stroke="#A9CCDB" stroke-miterlimit="10" x1="192" y1="0" x2="192" y2="512"/>
				<line fill="none" stroke="#A9CCDB" stroke-miterlimit="10" x1="160" y1="0" x2="160" y2="512"/>
				<line fill="none" stroke="#A9CCDB" stroke-miterlimit="10" x1="128" y1="0" x2="128" y2="512"/>
				<line fill="none" stroke="#A9CCDB" stroke-miterlimit="10" x1="96" y1="0" x2="96" y2="512"/>
				<line fill="none" stroke="#A9CCDB" stroke-miterlimit="10" x1="64" y1="0" x2="64" y2="512"/>
				<line fill="none" stroke="#A9CCDB" stroke-miterlimit="10" x1="32" y1="0" x2="32" y2="512"/>
			</g>
		</g>
	</g>
</g>
<path d="M452.188,219.251C442.97,114.406,358.563,32,256,32C153.438,32,69.001,114.406,59.811,219.251
	C43.782,233.062,32,251.469,32,272.845C32,318.72,85.501,352,121.594,352c19.094,0,35.562-9.719,46.406-27.251
	c8.596-13.968,13.312-32.406,13.312-51.937c0-46.595-24.531-79.155-59.719-79.155c-8.845,0-18.749,2.061-28.656,5.747
	C109.719,120.406,176.406,61.155,256,61.155c79.626,0,146.313,59.251,163.062,138.282c-9.907-3.719-19.812-5.779-28.656-5.779
	c-19.095,0-35.562,9.686-46.406,27.249c-8.596,13.967-13.344,32.373-13.344,51.906c0,42.017,20.063,72.406,49.782,78.017
	c-15.095,22.905-32.25,42.732-52.656,54.326C319.155,392.391,304.563,384,288,384c-26.499,0-48,21.501-48,48s21.501,48,48,48
	c24.812,0,45.002-18.938,47.501-43.095c38.938-18.562,66.749-57.5,86.342-91.858C451.344,333.062,480,306.406,480,272.845
	C480,251.469,468.188,233.062,452.188,219.251z M121.594,222.845c21.907,0,29.875,29.876,29.875,49.968
	c0,14.093-3.279,27.53-9.062,36.874c-8.093,13.126-17.657,13.126-20.812,13.126c-22.5,0-59.719-23.376-59.719-49.968
	c0-7.408,2.999-14.438,7.626-20.909c4.938-6.905,11.843-12.934,19.469-17.779C99.875,227.219,112,222.845,121.594,222.845z
	 M430.281,306.406c-9.907,7.937-21.875,13.578-32.346,15.529c-2.624,0.487-5.187,0.877-7.529,0.877
	c-21.907,0-29.875-29.875-29.875-50c0-14.063,3.312-27.533,9.062-36.845c8.093-13.123,17.657-13.123,20.812-13.123
	c9.594,0,21.751,4.406,32.656,11.312c7.594,4.846,14.499,10.874,19.437,17.779c4.596,6.471,7.626,13.501,7.626,20.909
	C450.125,285.517,441.562,297.376,430.281,306.406z"/>
</svg>
