<?xml version="1.0" encoding="utf-8"?>
<!-- Generator: Adobe Illustrator 16.1.0, SVG Export Plug-In . SVG Version: 6.00 Build 0)  -->
<!DOCTYPE svg PUBLIC "-//W3C//DTD SVG 1.1//EN" "http://www.w3.org/Graphics/SVG/1.1/DTD/svg11.dtd">
<svg version="1.1" id="Layer_1" xmlns="http://www.w3.org/2000/svg" xmlns:xlink="http://www.w3.org/1999/xlink" x="0px" y="0px"
	 width="512px" height="512px" viewBox="0 0 512 512" enable-background="new 0 0 512 512" xml:space="preserve">
<g id="Grid_1_">
	<g id="Layer_1_1_">
		<g id="Grid">
			<g>
				<rect fill="none" stroke="#A9CCDB" stroke-miterlimit="10" width="512" height="512"/>
				<line fill="none" stroke="#A9CCDB" stroke-miterlimit="10" x1="0" y1="480" x2="512" y2="480"/>
				<line fill="none" stroke="#A9CCDB" stroke-miterlimit="10" x1="0" y1="448" x2="512" y2="448"/>
				<line fill="none" stroke="#A9CCDB" stroke-miterlimit="10" x1="0" y1="416" x2="512" y2="416"/>
				<line fill="none" stroke="#A9CCDB" stroke-miterlimit="10" x1="0" y1="384" x2="512" y2="384"/>
				<line fill="none" stroke="#A9CCDB" stroke-miterlimit="10" x1="0" y1="352" x2="512" y2="352"/>
				<line fill="none" stroke="#A9CCDB" stroke-miterlimit="10" x1="0" y1="320" x2="512" y2="320"/>
				<line fill="none" stroke="#A9CCDB" stroke-miterlimit="10" x1="0" y1="288" x2="512" y2="288"/>
				<line fill="none" stroke="#A9CCDB" stroke-miterlimit="10" x1="0" y1="256" x2="512" y2="256"/>
				<line fill="none" stroke="#A9CCDB" stroke-miterlimit="10" x1="0" y1="224" x2="512" y2="224"/>
				<line fill="none" stroke="#A9CCDB" stroke-miterlimit="10" x1="0" y1="192" x2="512" y2="192"/>
				<line fill="none" stroke="#A9CCDB" stroke-miterlimit="10" x1="0" y1="160" x2="512" y2="160"/>
				<line fill="none" stroke="#A9CCDB" stroke-miterlimit="10" x1="0" y1="128" x2="512" y2="128"/>
				<line fill="none" stroke="#A9CCDB" stroke-miterlimit="10" x1="0" y1="96" x2="512" y2="96"/>
				<line fill="none" stroke="#A9CCDB" stroke-miterlimit="10" x1="0" y1="64" x2="512" y2="64"/>
				<line fill="none" stroke="#A9CCDB" stroke-miterlimit="10" x1="0" y1="32" x2="512" y2="32"/>
				<line fill="none" stroke="#A9CCDB" stroke-miterlimit="10" x1="480" y1="0" x2="480" y2="512"/>
				<line fill="none" stroke="#A9CCDB" stroke-miterlimit="10" x1="448" y1="0" x2="448" y2="512"/>
				<line fill="none" stroke="#A9CCDB" stroke-miterlimit="10" x1="416" y1="0" x2="416" y2="512"/>
				<line fill="none" stroke="#A9CCDB" stroke-miterlimit="10" x1="384" y1="0" x2="384" y2="512"/>
				<line fill="none" stroke="#A9CCDB" stroke-miterlimit="10" x1="352" y1="0" x2="352" y2="512"/>
				<line fill="none" stroke="#A9CCDB" stroke-miterlimit="10" x1="320" y1="0" x2="320" y2="512"/>
				<line fill="none" stroke="#A9CCDB" stroke-miterlimit="10" x1="288" y1="0" x2="288" y2="512"/>
				<line fill="none" stroke="#A9CCDB" stroke-miterlimit="10" x1="256" y1="0" x2="256" y2="512"/>
				<line fill="none" stroke="#A9CCDB" stroke-miterlimit="10" x1="224" y1="0" x2="224" y2="512"/>
				<line fill="none" stroke="#A9CCDB" stroke-miterlimit="10" x1="192" y1="0" x2="192" y2="512"/>
				<line fill="none" stroke="#A9CCDB" stroke-miterlimit="10" x1="160" y1="0" x2="160" y2="512"/>
				<line fill="none" stroke="#A9CCDB" stroke-miterlimit="10" x1="128" y1="0" x2="128" y2="512"/>
				<line fill="none" stroke="#A9CCDB" stroke-miterlimit="10" x1="96" y1="0" x2="96" y2="512"/>
				<line fill="none" stroke="#A9CCDB" stroke-miterlimit="10" x1="64" y1="0" x2="64" y2="512"/>
				<line fill="none" stroke="#A9CCDB" stroke-miterlimit="10" x1="32" y1="0" x2="32" y2="512"/>
			</g>
		</g>
	</g>
</g>
<g>
	<g>
		<path d="M205.433,240.624c10.346-5.312,18.141-11.248,23.501-17.718c9.517-11.594,14.313-26.97,14.313-46
			c0-18.5-4.752-34.407-14.205-47.594C213.417,107.625,186.732,96.531,149.151,96H-0.003v312.125h139.046
			c15.673,0,30.205-1.405,43.609-4.157c13.344-2.873,25.018-8.032,34.829-15.625c8.765-6.749,16.016-14.906,21.843-24.686
			c9.171-14.655,13.734-31.219,13.734-49.722c0-17.936-4.016-33.123-12.016-45.778C233.027,255.594,221.151,246.467,205.433,240.624
			z M61.574,150.282h67.094c14.781,0,26.985,1.562,36.483,4.812c11.018,4.717,16.563,14.218,16.563,28.813
			c0,13.094-4.218,22.218-12.499,27.437c-8.438,5.124-19.28,7.687-32.672,7.687H61.574V150.282z M167.699,348.438
			c-7.469,3.626-17.888,5.529-31.248,5.529H61.574v-83.155h75.923c13.248,0.062,23.517,1.812,30.797,5.188
			c13.123,6.064,19.687,17.188,19.687,33.469C187.98,328.624,181.231,341.626,167.699,348.438z M509.997,263.907
			c-2.781-18.096-8.89-33.971-18.186-47.782c-10.394-15.562-23.533-26.906-39.469-34.157c-15.875-7.123-33.767-10.841-53.61-10.841
			c-33.439,0-60.627,10.717-81.548,32.029c-20.97,21.344-31.453,52.064-31.453,92c0,42.72,11.577,73.469,34.797,92.438
			c23.219,18.938,50,28.406,80.329,28.406c36.765,0,65.405-11.28,85.859-33.626c13.107-14.186,20.516-28.156,22.108-41.779h-60.876
			c-3.594,6.842-7.654,12.062-12.343,15.872c-8.438,7.066-19.501,10.596-33.078,10.596c-12.797,0-23.782-2.874-32.845-8.656
			c-14.982-9.344-22.967-25.532-23.904-48.78h166.157C512.23,289.687,511.559,274.467,509.997,263.907z M347.264,269.936
			c2.17-15.091,7.453-26.966,15.889-35.811c8.394-8.72,20.297-13.155,35.594-13.155c14.063,0,25.862,4.157,35.344,12.435
			c9.517,8.253,14.829,20.47,15.907,36.531H347.264z M480.013,128h-160v32h160V128z"/>
	</g>
</g>
</svg>
