<?xml version="1.0" encoding="utf-8"?>
<!-- Generator: Adobe Illustrator 16.1.0, SVG Export Plug-In . SVG Version: 6.00 Build 0)  -->
<!DOCTYPE svg PUBLIC "-//W3C//DTD SVG 1.1//EN" "http://www.w3.org/Graphics/SVG/1.1/DTD/svg11.dtd">
<svg version="1.1" id="Layer_1" xmlns="http://www.w3.org/2000/svg" xmlns:xlink="http://www.w3.org/1999/xlink" x="0px" y="0px"
	 width="512px" height="512px" viewBox="0 0 512 512" enable-background="new 0 0 512 512" xml:space="preserve">
<g id="Grid_1_">
	<g id="Layer_1_1_">
		<g id="Grid">
			<g>
				<rect fill="none" stroke="#A9CCDB" stroke-miterlimit="10" width="512" height="512"/>
				<line fill="none" stroke="#A9CCDB" stroke-miterlimit="10" x1="0" y1="480" x2="512" y2="480"/>
				<line fill="none" stroke="#A9CCDB" stroke-miterlimit="10" x1="0" y1="448" x2="512" y2="448"/>
				<line fill="none" stroke="#A9CCDB" stroke-miterlimit="10" x1="0" y1="416" x2="512" y2="416"/>
				<line fill="none" stroke="#A9CCDB" stroke-miterlimit="10" x1="0" y1="384" x2="512" y2="384"/>
				<line fill="none" stroke="#A9CCDB" stroke-miterlimit="10" x1="0" y1="352" x2="512" y2="352"/>
				<line fill="none" stroke="#A9CCDB" stroke-miterlimit="10" x1="0" y1="320" x2="512" y2="320"/>
				<line fill="none" stroke="#A9CCDB" stroke-miterlimit="10" x1="0" y1="288" x2="512" y2="288"/>
				<line fill="none" stroke="#A9CCDB" stroke-miterlimit="10" x1="0" y1="256" x2="512" y2="256"/>
				<line fill="none" stroke="#A9CCDB" stroke-miterlimit="10" x1="0" y1="224" x2="512" y2="224"/>
				<line fill="none" stroke="#A9CCDB" stroke-miterlimit="10" x1="0" y1="192" x2="512" y2="192"/>
				<line fill="none" stroke="#A9CCDB" stroke-miterlimit="10" x1="0" y1="160" x2="512" y2="160"/>
				<line fill="none" stroke="#A9CCDB" stroke-miterlimit="10" x1="0" y1="128" x2="512" y2="128"/>
				<line fill="none" stroke="#A9CCDB" stroke-miterlimit="10" x1="0" y1="96" x2="512" y2="96"/>
				<line fill="none" stroke="#A9CCDB" stroke-miterlimit="10" x1="0" y1="64" x2="512" y2="64"/>
				<line fill="none" stroke="#A9CCDB" stroke-miterlimit="10" x1="0" y1="32" x2="512" y2="32"/>
				<line fill="none" stroke="#A9CCDB" stroke-miterlimit="10" x1="480" y1="0" x2="480" y2="512"/>
				<line fill="none" stroke="#A9CCDB" stroke-miterlimit="10" x1="448" y1="0" x2="448" y2="512"/>
				<line fill="none" stroke="#A9CCDB" stroke-miterlimit="10" x1="416" y1="0" x2="416" y2="512"/>
				<line fill="none" stroke="#A9CCDB" stroke-miterlimit="10" x1="384" y1="0" x2="384" y2="512"/>
				<line fill="none" stroke="#A9CCDB" stroke-miterlimit="10" x1="352" y1="0" x2="352" y2="512"/>
				<line fill="none" stroke="#A9CCDB" stroke-miterlimit="10" x1="320" y1="0" x2="320" y2="512"/>
				<line fill="none" stroke="#A9CCDB" stroke-miterlimit="10" x1="288" y1="0" x2="288" y2="512"/>
				<line fill="none" stroke="#A9CCDB" stroke-miterlimit="10" x1="256" y1="0" x2="256" y2="512"/>
				<line fill="none" stroke="#A9CCDB" stroke-miterlimit="10" x1="224" y1="0" x2="224" y2="512"/>
				<line fill="none" stroke="#A9CCDB" stroke-miterlimit="10" x1="192" y1="0" x2="192" y2="512"/>
				<line fill="none" stroke="#A9CCDB" stroke-miterlimit="10" x1="160" y1="0" x2="160" y2="512"/>
				<line fill="none" stroke="#A9CCDB" stroke-miterlimit="10" x1="128" y1="0" x2="128" y2="512"/>
				<line fill="none" stroke="#A9CCDB" stroke-miterlimit="10" x1="96" y1="0" x2="96" y2="512"/>
				<line fill="none" stroke="#A9CCDB" stroke-miterlimit="10" x1="64" y1="0" x2="64" y2="512"/>
				<line fill="none" stroke="#A9CCDB" stroke-miterlimit="10" x1="32" y1="0" x2="32" y2="512"/>
			</g>
		</g>
	</g>
</g>
<g>
	<g>
		<path d="M457.562,118.815h-112C322.281,106.126,284.624,96,256,96c-28.562,0-66.25,10.125-89.562,22.814H144
			C143.28,95.687,124.624,96,113.501,96H72.749c-11.216,0-18.311,11.844-18.311,22.814c-11.219,0-22.438,6.158-22.438,17.189
			v239.899c0,11.095,11.219,17.221,22.438,17.221h112C189.75,405.749,227.438,416,256,416c28.624,0,66.281-10.251,89.562-22.876h112
			c11.283,0,22.438-6.126,22.438-17.221V136.004C480,124.973,468.845,118.815,457.562,118.815z M54.438,370.217V141.691H144
			c-33.875,29.318-50.874,66.413-50.874,114.261c0,47.88,16.999,85.042,50.874,114.265H54.438z M329.188,375.903
			c-10.5,6.189-21.876,11.095-34,14.564c-0.624,0.093-1.345,0.311-2.093,0.563c-4.906,1.312-9.844,2.218-14.906,3.123
			c-1.407,0.125-2.812,0.438-4.188,0.531c-5.875,0.781-11.907,1.251-18,1.251s-12.125-0.47-18-1.251
			c-1.376-0.093-2.781-0.406-4.189-0.531c-5.062-0.905-10.061-1.811-14.938-3.123c-0.684-0.253-1.436-0.471-2.124-0.563
			c-12.062-3.47-23.437-8.375-33.936-14.564c-41.501-24.409-69.312-68.913-69.312-119.951c0-51.003,27.811-95.507,69.312-119.948
			c10.499-6.218,21.875-11.127,33.936-14.501c0.688-0.221,1.44-0.374,2.124-0.563c4.877-1.312,9.876-2.314,14.938-3.063
			c1.408-0.282,2.813-0.499,4.222-0.656c5.875-0.781,11.903-1.283,17.968-1.283s12.093,0.502,17.968,1.283
			c1.408,0.157,2.813,0.374,4.221,0.656c5.062,0.749,10,1.75,14.906,3.063c0.748,0.189,1.469,0.342,2.093,0.563
			c12.124,3.374,23.5,8.283,34,14.501c41.5,24.441,69.312,68.944,69.312,119.948C398.499,306.99,370.688,351.494,329.188,375.903z
			 M457.562,370.217H368c33.907-29.223,50.97-66.385,50.97-114.265c0-47.848-17.062-84.943-50.97-114.261h89.562V370.217z
			 M256,141.691v22.879c52.281,0,89.562,40.065,89.562,91.382H368C368,195.322,317.812,141.691,256,141.691z"/>
	</g>
</g>
</svg>
