<?xml version="1.0" encoding="utf-8"?>
<!-- Generator: Adobe Illustrator 16.1.0, SVG Export Plug-In . SVG Version: 6.00 Build 0)  -->
<!DOCTYPE svg PUBLIC "-//W3C//DTD SVG 1.1//EN" "http://www.w3.org/Graphics/SVG/1.1/DTD/svg11.dtd">
<svg version="1.1" id="Layer_1" xmlns="http://www.w3.org/2000/svg" xmlns:xlink="http://www.w3.org/1999/xlink" x="0px" y="0px"
	 width="512px" height="512px" viewBox="0 0 512 512" enable-background="new 0 0 512 512" xml:space="preserve">
<g id="Grid_1_">
	<g id="Layer_1_1_">
		<g id="Grid">
			<g>
				<rect fill="none" stroke="#A9CCDB" stroke-miterlimit="10" width="512" height="512"/>
				<line fill="none" stroke="#A9CCDB" stroke-miterlimit="10" x1="0" y1="480" x2="512" y2="480"/>
				<line fill="none" stroke="#A9CCDB" stroke-miterlimit="10" x1="0" y1="448" x2="512" y2="448"/>
				<line fill="none" stroke="#A9CCDB" stroke-miterlimit="10" x1="0" y1="416" x2="512" y2="416"/>
				<line fill="none" stroke="#A9CCDB" stroke-miterlimit="10" x1="0" y1="384" x2="512" y2="384"/>
				<line fill="none" stroke="#A9CCDB" stroke-miterlimit="10" x1="0" y1="352" x2="512" y2="352"/>
				<line fill="none" stroke="#A9CCDB" stroke-miterlimit="10" x1="0" y1="320" x2="512" y2="320"/>
				<line fill="none" stroke="#A9CCDB" stroke-miterlimit="10" x1="0" y1="288" x2="512" y2="288"/>
				<line fill="none" stroke="#A9CCDB" stroke-miterlimit="10" x1="0" y1="256" x2="512" y2="256"/>
				<line fill="none" stroke="#A9CCDB" stroke-miterlimit="10" x1="0" y1="224" x2="512" y2="224"/>
				<line fill="none" stroke="#A9CCDB" stroke-miterlimit="10" x1="0" y1="192" x2="512" y2="192"/>
				<line fill="none" stroke="#A9CCDB" stroke-miterlimit="10" x1="0" y1="160" x2="512" y2="160"/>
				<line fill="none" stroke="#A9CCDB" stroke-miterlimit="10" x1="0" y1="128" x2="512" y2="128"/>
				<line fill="none" stroke="#A9CCDB" stroke-miterlimit="10" x1="0" y1="96" x2="512" y2="96"/>
				<line fill="none" stroke="#A9CCDB" stroke-miterlimit="10" x1="0" y1="64" x2="512" y2="64"/>
				<line fill="none" stroke="#A9CCDB" stroke-miterlimit="10" x1="0" y1="32" x2="512" y2="32"/>
				<line fill="none" stroke="#A9CCDB" stroke-miterlimit="10" x1="480" y1="0" x2="480" y2="512"/>
				<line fill="none" stroke="#A9CCDB" stroke-miterlimit="10" x1="448" y1="0" x2="448" y2="512"/>
				<line fill="none" stroke="#A9CCDB" stroke-miterlimit="10" x1="416" y1="0" x2="416" y2="512"/>
				<line fill="none" stroke="#A9CCDB" stroke-miterlimit="10" x1="384" y1="0" x2="384" y2="512"/>
				<line fill="none" stroke="#A9CCDB" stroke-miterlimit="10" x1="352" y1="0" x2="352" y2="512"/>
				<line fill="none" stroke="#A9CCDB" stroke-miterlimit="10" x1="320" y1="0" x2="320" y2="512"/>
				<line fill="none" stroke="#A9CCDB" stroke-miterlimit="10" x1="288" y1="0" x2="288" y2="512"/>
				<line fill="none" stroke="#A9CCDB" stroke-miterlimit="10" x1="256" y1="0" x2="256" y2="512"/>
				<line fill="none" stroke="#A9CCDB" stroke-miterlimit="10" x1="224" y1="0" x2="224" y2="512"/>
				<line fill="none" stroke="#A9CCDB" stroke-miterlimit="10" x1="192" y1="0" x2="192" y2="512"/>
				<line fill="none" stroke="#A9CCDB" stroke-miterlimit="10" x1="160" y1="0" x2="160" y2="512"/>
				<line fill="none" stroke="#A9CCDB" stroke-miterlimit="10" x1="128" y1="0" x2="128" y2="512"/>
				<line fill="none" stroke="#A9CCDB" stroke-miterlimit="10" x1="96" y1="0" x2="96" y2="512"/>
				<line fill="none" stroke="#A9CCDB" stroke-miterlimit="10" x1="64" y1="0" x2="64" y2="512"/>
				<line fill="none" stroke="#A9CCDB" stroke-miterlimit="10" x1="32" y1="0" x2="32" y2="512"/>
			</g>
		</g>
	</g>
</g>
<path d="M163.814,377.376c12.326-4.378,23.731-10.096,34.218-17.315c10.467-7.187,20.326-15.469,29.67-24.938
	c9.312-9.497,18.877-19.404,28.656-29.497c8.812,10.093,18.141,20,27.939,29.497c9.767,9.469,20.108,17.751,31.046,24.938
	c10.938,7.22,22.749,12.938,35.344,17.315c12.593,4.343,26.032,6.624,40.5,6.624c18.531,0,35.5-3.312,50.531-10.064
	c15.187-6.655,27.938-15.968,38.124-27.654c10.282-11.907,18.189-25.593,23.783-41.407C509.28,289.28,512,272.25,512,254.25
	c0-18.032-2.72-34.656-8.374-49.936c-5.594-15.251-13.501-28.563-23.783-39.907c-10.186-11.283-22.78-20.217-37.654-26.72
	C427.28,131.251,410.471,128,391.814,128c-14.877,0-28.688,2.342-41.533,6.938c-12.78,4.656-24.655,10.749-35.562,18.406
	c-10.97,7.594-21.251,16.531-30.797,26.717c-9.564,10.128-18.752,20.563-27.564,31.19c-9.328-11.126-18.717-21.625-28.294-31.564
	c-9.565-9.936-19.798-18.749-30.72-26.343c-10.985-7.657-22.845-13.75-35.657-18.406c-12.826-4.595-26.874-6.938-42.266-6.938
	c-18.592,0-35.357,3.376-50.278,10.061c-14.909,6.72-27.501,15.75-37.734,27.062c-10.253,11.315-18.048,24.752-23.376,40.253
	C2.64,220.874,0,237.625,0,255.625c0,18.093,2.797,34.966,8.358,50.656c5.594,15.751,13.782,29.28,24.486,40.563
	c10.688,11.437,23.514,20.436,38.391,27.091C86.141,380.688,103.143,384,122.233,384C137.642,384,151.437,381.719,163.814,377.376z
	 M81.03,297.968c-9.795-10.655-14.672-24.249-14.672-40.905c0-15.28,4.784-29.03,14.297-41.312
	c9.549-12.25,22.487-18.375,38.765-18.375c8.861,0,17.722,2,26.563,5.904c8.861,3.907,17.36,8.909,25.485,14.909
	c8.173,6,15.939,12.624,23.392,19.747c7.485,7.187,14,13.782,19.562,19.783c-5.562,6.47-11.843,13.062-18.829,19.782
	c-6.982,6.78-14.451,12.78-22.375,18.061c-7.907,5.251-16.33,9.719-25.126,13.158c-8.874,3.562-17.734,5.188-26.547,5.188
	C104.313,313.907,90.813,308.624,81.03,297.968z M364.938,309.095c-8.624-3.283-16.845-7.533-24.749-12.813
	c-7.907-5.376-15.469-11.407-22.47-18c-6.938-6.78-13.469-13.657-19.469-20.562c5.564-6,11.907-12.596,18.876-19.783
	c6.999-7.123,14.311-13.747,22-19.747c7.594-6,15.812-11.002,24.436-14.909c8.656-3.904,17.626-5.904,26.877-5.904
	c17.28,0,30.842,5.747,40.842,17.344c10,11.593,15.033,25.405,15.033,41.654c0,16.189-4.595,29.843-14,40.906
	c-9.251,11.062-22.595,16.627-39.75,16.627C382.72,313.907,373.594,312.281,364.938,309.095z"/>
</svg>
