<?xml version="1.0" encoding="utf-8"?>
<!-- Generator: Adobe Illustrator 16.1.0, SVG Export Plug-In . SVG Version: 6.00 Build 0)  -->
<!DOCTYPE svg PUBLIC "-//W3C//DTD SVG 1.1//EN" "http://www.w3.org/Graphics/SVG/1.1/DTD/svg11.dtd">
<svg version="1.1" id="Layer_1" xmlns="http://www.w3.org/2000/svg" xmlns:xlink="http://www.w3.org/1999/xlink" x="0px" y="0px"
	 width="512px" height="512px" viewBox="0 0 512 512" enable-background="new 0 0 512 512" xml:space="preserve">
<g id="Grid_1_">
	<g id="Layer_1_1_">
		<g id="Grid">
			<g>
				<rect fill="none" stroke="#A9CCDB" stroke-miterlimit="10" width="512" height="512"/>
				<line fill="none" stroke="#A9CCDB" stroke-miterlimit="10" x1="0" y1="480" x2="512" y2="480"/>
				<line fill="none" stroke="#A9CCDB" stroke-miterlimit="10" x1="0" y1="448" x2="512" y2="448"/>
				<line fill="none" stroke="#A9CCDB" stroke-miterlimit="10" x1="0" y1="416" x2="512" y2="416"/>
				<line fill="none" stroke="#A9CCDB" stroke-miterlimit="10" x1="0" y1="384" x2="512" y2="384"/>
				<line fill="none" stroke="#A9CCDB" stroke-miterlimit="10" x1="0" y1="352" x2="512" y2="352"/>
				<line fill="none" stroke="#A9CCDB" stroke-miterlimit="10" x1="0" y1="320" x2="512" y2="320"/>
				<line fill="none" stroke="#A9CCDB" stroke-miterlimit="10" x1="0" y1="288" x2="512" y2="288"/>
				<line fill="none" stroke="#A9CCDB" stroke-miterlimit="10" x1="0" y1="256" x2="512" y2="256"/>
				<line fill="none" stroke="#A9CCDB" stroke-miterlimit="10" x1="0" y1="224" x2="512" y2="224"/>
				<line fill="none" stroke="#A9CCDB" stroke-miterlimit="10" x1="0" y1="192" x2="512" y2="192"/>
				<line fill="none" stroke="#A9CCDB" stroke-miterlimit="10" x1="0" y1="160" x2="512" y2="160"/>
				<line fill="none" stroke="#A9CCDB" stroke-miterlimit="10" x1="0" y1="128" x2="512" y2="128"/>
				<line fill="none" stroke="#A9CCDB" stroke-miterlimit="10" x1="0" y1="96" x2="512" y2="96"/>
				<line fill="none" stroke="#A9CCDB" stroke-miterlimit="10" x1="0" y1="64" x2="512" y2="64"/>
				<line fill="none" stroke="#A9CCDB" stroke-miterlimit="10" x1="0" y1="32" x2="512" y2="32"/>
				<line fill="none" stroke="#A9CCDB" stroke-miterlimit="10" x1="480" y1="0" x2="480" y2="512"/>
				<line fill="none" stroke="#A9CCDB" stroke-miterlimit="10" x1="448" y1="0" x2="448" y2="512"/>
				<line fill="none" stroke="#A9CCDB" stroke-miterlimit="10" x1="416" y1="0" x2="416" y2="512"/>
				<line fill="none" stroke="#A9CCDB" stroke-miterlimit="10" x1="384" y1="0" x2="384" y2="512"/>
				<line fill="none" stroke="#A9CCDB" stroke-miterlimit="10" x1="352" y1="0" x2="352" y2="512"/>
				<line fill="none" stroke="#A9CCDB" stroke-miterlimit="10" x1="320" y1="0" x2="320" y2="512"/>
				<line fill="none" stroke="#A9CCDB" stroke-miterlimit="10" x1="288" y1="0" x2="288" y2="512"/>
				<line fill="none" stroke="#A9CCDB" stroke-miterlimit="10" x1="256" y1="0" x2="256" y2="512"/>
				<line fill="none" stroke="#A9CCDB" stroke-miterlimit="10" x1="224" y1="0" x2="224" y2="512"/>
				<line fill="none" stroke="#A9CCDB" stroke-miterlimit="10" x1="192" y1="0" x2="192" y2="512"/>
				<line fill="none" stroke="#A9CCDB" stroke-miterlimit="10" x1="160" y1="0" x2="160" y2="512"/>
				<line fill="none" stroke="#A9CCDB" stroke-miterlimit="10" x1="128" y1="0" x2="128" y2="512"/>
				<line fill="none" stroke="#A9CCDB" stroke-miterlimit="10" x1="96" y1="0" x2="96" y2="512"/>
				<line fill="none" stroke="#A9CCDB" stroke-miterlimit="10" x1="64" y1="0" x2="64" y2="512"/>
				<line fill="none" stroke="#A9CCDB" stroke-miterlimit="10" x1="32" y1="0" x2="32" y2="512"/>
			</g>
		</g>
	</g>
</g>
<path d="M474.627,290.688c1.687-11.188,2.842-22.5,2.842-34.094c0-126.032-102.186-228.22-228.25-228.22
	c-11.781,0-23.279,1.158-34.562,2.876C191.875,11.811,162.406,0,130.157,0C58.313,0,0,58.282,0,130.157
	c0,29.344,9.814,56.342,26.221,78.093c-3.344,15.594-5.219,31.75-5.219,48.345c0,126.094,102.157,228.279,228.217,228.279
	c16.189,0,32-1.748,47.22-4.967C319.312,499.843,349.126,512,381.843,512C453.719,512,512,453.719,512,381.843
	C512,346.313,497.75,314.157,474.627,290.688z M355.719,356c-8.967,12.781-22.157,22.781-39.469,30
	c-17.312,7.28-37.844,10.874-61.562,10.874c-28.498,0-52-4.938-70.499-14.842c-13.095-7.095-23.75-16.596-31.968-28.499
	c-8.188-11.847-12.313-23.408-12.313-34.628c0-6.531,2.467-12.093,7.376-16.717c4.938-4.655,11.216-6.97,18.813-6.97
	c6.153,0,11.405,1.783,15.654,5.438c4.25,3.594,7.907,8.97,10.905,16.063c3.69,8.468,7.658,15.498,11.907,21.155
	c4.25,5.687,10.282,10.375,18,14.032c7.751,3.687,17.937,5.529,30.5,5.529c17.344,0,31.408-3.687,42.221-11.123
	c10.812-7.408,16.25-16.656,16.25-27.782c0-8.781-2.906-15.937-8.752-21.405c-5.844-5.5-13.373-9.689-22.656-12.595
	c-9.248-2.874-21.562-5.968-37.095-9.219c-20.717-4.468-38.061-9.687-52.029-15.626c-13.971-6-25.094-14.125-33.251-24.436
	c-8.218-10.345-12.313-23.158-12.313-38.438c0-14.624,4.313-27.562,13.001-38.906c8.624-11.312,21.155-20.064,37.594-26.125
	c16.406-6.096,35.657-9.126,57.843-9.126c17.687,0,33.03,2,45.939,6.032c12.938,4.032,23.654,9.405,32.186,16.093
	c8.499,6.72,14.752,13.75,18.688,21.094c3.939,7.344,5.907,14.531,5.907,21.501c0,6.406-2.47,12.186-7.344,17.312
	c-4.938,5.094-11.094,7.687-18.438,7.687c-6.688,0-11.782-1.562-15.251-4.624c-3.466-3.062-7.248-8.093-11.312-15.094
	c-5.248-10-11.53-17.843-18.906-23.437c-7.344-5.594-19.155-8.406-35.437-8.406c-15.062,0-27.22,3.03-36.47,9.123
	c-9.281,6.064-13.876,13.408-13.876,21.971c0,5.312,1.565,9.904,4.72,13.75c3.127,3.875,7.469,7.155,13.002,9.936
	c5.469,2.781,11.062,4.938,16.717,6.563c5.625,1.53,14.938,3.843,27.939,6.845c16.249,3.498,30.966,7.373,44.156,11.594
	c13.188,4.218,24.403,9.341,33.654,15.341c9.28,6.064,16.5,13.69,21.658,22.909c5.187,9.22,7.779,20.531,7.779,33.937
	C369.188,328.781,364.688,343.219,355.719,356z"/>
</svg>
