<?xml version="1.0" encoding="utf-8"?>
<!-- Generator: Adobe Illustrator 16.1.0, SVG Export Plug-In . SVG Version: 6.00 Build 0)  -->
<!DOCTYPE svg PUBLIC "-//W3C//DTD SVG 1.1//EN" "http://www.w3.org/Graphics/SVG/1.1/DTD/svg11.dtd">
<svg version="1.1" id="Layer_1" xmlns="http://www.w3.org/2000/svg" xmlns:xlink="http://www.w3.org/1999/xlink" x="0px" y="0px"
	 width="512px" height="512px" viewBox="0 0 512 512" enable-background="new 0 0 512 512" xml:space="preserve">
<g id="Grid_1_">
	<g id="Layer_1_1_">
		<g id="Grid">
			<g>
				<rect fill="none" stroke="#A9CCDB" stroke-miterlimit="10" width="512" height="512"/>
				<line fill="none" stroke="#A9CCDB" stroke-miterlimit="10" x1="0" y1="480" x2="512" y2="480"/>
				<line fill="none" stroke="#A9CCDB" stroke-miterlimit="10" x1="0" y1="448" x2="512" y2="448"/>
				<line fill="none" stroke="#A9CCDB" stroke-miterlimit="10" x1="0" y1="416" x2="512" y2="416"/>
				<line fill="none" stroke="#A9CCDB" stroke-miterlimit="10" x1="0" y1="384" x2="512" y2="384"/>
				<line fill="none" stroke="#A9CCDB" stroke-miterlimit="10" x1="0" y1="352" x2="512" y2="352"/>
				<line fill="none" stroke="#A9CCDB" stroke-miterlimit="10" x1="0" y1="320" x2="512" y2="320"/>
				<line fill="none" stroke="#A9CCDB" stroke-miterlimit="10" x1="0" y1="288" x2="512" y2="288"/>
				<line fill="none" stroke="#A9CCDB" stroke-miterlimit="10" x1="0" y1="256" x2="512" y2="256"/>
				<line fill="none" stroke="#A9CCDB" stroke-miterlimit="10" x1="0" y1="224" x2="512" y2="224"/>
				<line fill="none" stroke="#A9CCDB" stroke-miterlimit="10" x1="0" y1="192" x2="512" y2="192"/>
				<line fill="none" stroke="#A9CCDB" stroke-miterlimit="10" x1="0" y1="160" x2="512" y2="160"/>
				<line fill="none" stroke="#A9CCDB" stroke-miterlimit="10" x1="0" y1="128" x2="512" y2="128"/>
				<line fill="none" stroke="#A9CCDB" stroke-miterlimit="10" x1="0" y1="96" x2="512" y2="96"/>
				<line fill="none" stroke="#A9CCDB" stroke-miterlimit="10" x1="0" y1="64" x2="512" y2="64"/>
				<line fill="none" stroke="#A9CCDB" stroke-miterlimit="10" x1="0" y1="32" x2="512" y2="32"/>
				<line fill="none" stroke="#A9CCDB" stroke-miterlimit="10" x1="480" y1="0" x2="480" y2="512"/>
				<line fill="none" stroke="#A9CCDB" stroke-miterlimit="10" x1="448" y1="0" x2="448" y2="512"/>
				<line fill="none" stroke="#A9CCDB" stroke-miterlimit="10" x1="416" y1="0" x2="416" y2="512"/>
				<line fill="none" stroke="#A9CCDB" stroke-miterlimit="10" x1="384" y1="0" x2="384" y2="512"/>
				<line fill="none" stroke="#A9CCDB" stroke-miterlimit="10" x1="352" y1="0" x2="352" y2="512"/>
				<line fill="none" stroke="#A9CCDB" stroke-miterlimit="10" x1="320" y1="0" x2="320" y2="512"/>
				<line fill="none" stroke="#A9CCDB" stroke-miterlimit="10" x1="288" y1="0" x2="288" y2="512"/>
				<line fill="none" stroke="#A9CCDB" stroke-miterlimit="10" x1="256" y1="0" x2="256" y2="512"/>
				<line fill="none" stroke="#A9CCDB" stroke-miterlimit="10" x1="224" y1="0" x2="224" y2="512"/>
				<line fill="none" stroke="#A9CCDB" stroke-miterlimit="10" x1="192" y1="0" x2="192" y2="512"/>
				<line fill="none" stroke="#A9CCDB" stroke-miterlimit="10" x1="160" y1="0" x2="160" y2="512"/>
				<line fill="none" stroke="#A9CCDB" stroke-miterlimit="10" x1="128" y1="0" x2="128" y2="512"/>
				<line fill="none" stroke="#A9CCDB" stroke-miterlimit="10" x1="96" y1="0" x2="96" y2="512"/>
				<line fill="none" stroke="#A9CCDB" stroke-miterlimit="10" x1="64" y1="0" x2="64" y2="512"/>
				<line fill="none" stroke="#A9CCDB" stroke-miterlimit="10" x1="32" y1="0" x2="32" y2="512"/>
			</g>
		</g>
	</g>
</g>
<path d="M280.688,512c-81.312,0-146.97-19.404-197.03-58.313C27.907,410.499,0,348.656,0,268.125
	c0-78.813,27.219-143.562,81.657-194.313C134.563,24.595,199.875,0,277.686,0c59.814,0,112.846,18.438,159.22,55.219
	C486.969,94.938,512,144.563,512,204.064c0,49.747-16.125,93.811-48.375,132.125c-33.907,40.278-74.752,60.406-122.438,60.406
	c-25.187,0-43.03-9.034-53.469-27.095c-23.155,18.061-47.344,27.095-72.53,27.095c-29.405,0-53.28-13.002-71.53-39.034
	c-16.47-23.625-24.688-50.998-24.688-82.186c0-39.939,12.655-77.5,38.031-112.656c27.53-38.221,60.153-57.344,97.747-57.344
	c14.596,0,25.876,1.875,33.751,5.654c8.563,4.157,17.062,12.157,25.501,24.032c1.5-10.72,4.063-17.875,7.811-21.5
	c3.689-3.562,10.813-5.373,21.376-5.373c22,0,33.002,8.749,33.002,26.342c0,1.907-0.157,3.968-0.503,6.189l-23.404,145.124
	c-4.406,27.03-6.563,42.156-6.563,45.437c0,7.907,4.189,11.847,12.596,11.847c7.718,0,18.374-4.909,32-14.688
	c18.125-13.062,32-31.625,41.562-55.718c8.592-21.469,12.845-44.721,12.845-69.658c0-47.625-16.845-85.811-50.656-114.499
	C362.499,61.501,322.969,48,275.404,48c-60.436,0-110.592,20.781-150.403,62.314C85.155,151.875,65.28,203.626,65.28,265.562
	c0,63.814,20.908,112.845,62.752,147.062c38.281,31.312,89.343,46.97,153.154,46.97c59.501,0,109.188-17.469,149.188-52.406
	c5.875-6.874,14.97-16.874,27.188-30c7.407-7.529,16.47-11.344,27.251-11.344c5.687,0,10.624,2.281,14.72,6.845
	c4.125,4.592,6.153,9.811,6.153,15.654c0,7.722-4.249,17.875-12.841,30.471c-6.877,10.313-14.125,19.094-21.658,26.313
	c-23.344,21.875-53.062,38.748-89.187,50.592C349.062,506.596,315.312,512,280.688,512z M272.374,152.845
	c-22.343,0-42.218,19.123-59.687,57.405c-15.001,32.438-22.47,61.532-22.47,87.376c0,33.28,13.033,49.907,39.094,49.907
	c17.437,0,33.907-21.469,49.376-64.378c13.28-36.342,19.875-65.718,19.875-88.153c0-10.502-1.843-19.565-5.532-27.19
	C288.499,157.843,281.625,152.845,272.374,152.845z"/>
</svg>
